<svg width="32" height="32" viewBox="0 0 32 32" fill="none" xmlns="http://www.w3.org/2000/svg">
<g clip-path="url(#clip0)">
<path d="M15.0742 5.56663C15.2556 4.30755 17.073 4.30754 17.2544 5.56663L17.4997 7.26924C17.6378 8.22767 18.8566 8.55424 19.4554 7.79326L20.5191 6.44139C21.3058 5.44169 22.8797 6.3504 22.4072 7.5315L21.7684 9.12866C21.4087 10.0277 22.3009 10.9199 23.2 10.5603L24.7972 9.92141C25.9783 9.44896 26.887 11.0229 25.8873 11.8095L24.5354 12.8733C23.7744 13.4721 24.101 14.6908 25.0594 14.8289L26.762 15.0742C28.0211 15.2556 28.0211 17.073 26.762 17.2544L25.0594 17.4997C24.101 17.6378 23.7744 18.8566 24.5354 19.4554L25.8873 20.5191C26.887 21.3058 25.9783 22.8797 24.7972 22.4072L23.2 21.7684C22.3009 21.4087 21.4087 22.3009 21.7684 23.2L22.4072 24.7972C22.8797 25.9783 21.3058 26.887 20.5191 25.8873L19.4554 24.5354C18.8566 23.7744 17.6378 24.101 17.4997 25.0594L17.2544 26.762C17.073 28.0211 15.2556 28.0211 15.0742 26.762L14.8289 25.0594C14.6908 24.101 13.4721 23.7744 12.8733 24.5354L11.8095 25.8873C11.0229 26.887 9.44896 25.9783 9.92141 24.7972L10.5603 23.2C10.9199 22.3009 10.0277 21.4087 9.12866 21.7684L7.5315 22.4072C6.35041 22.8797 5.44169 21.3058 6.44139 20.5191L7.79326 19.4554C8.55424 18.8566 8.22767 17.6378 7.26925 17.4997L5.56663 17.2544C4.30755 17.073 4.30754 15.2556 5.56663 15.0742L7.26924 14.8289C8.22767 14.6908 8.55424 13.4721 7.79326 12.8733L6.44139 11.8095C5.44169 11.0229 6.3504 9.44896 7.5315 9.92141L9.12866 10.5603C10.0277 10.9199 10.9199 10.0277 10.5603 9.12866L9.92142 7.5315C9.44896 6.35041 11.0229 5.44169 11.8095 6.44139L12.8733 7.79326C13.4721 8.55424 14.6908 8.22767 14.8289 7.26925L15.0742 5.56663Z" fill="#FF715B"/>
</g>
<defs>
<clipPath id="clip0">
<rect width="32" height="32" fill="white"/>
</clipPath>
</defs>
</svg>
